<svg width="138" height="41" viewBox="0 0 138 41" fill="none" xmlns="http://www.w3.org/2000/svg">
<path d="M26.6196 11.4923H15.4535V0.844482H37.2674V17.2402C37.2674 19.0777 36.1838 20.7738 34.5348 21.5748L26.6196 25.3439V11.4923Z" fill="#17CF81"/>
<path d="M11.1661 26.9457H0V16.345H21.8139V32.7407C21.8139 34.5782 20.7303 36.2743 19.0813 37.0752L11.1661 40.8444V26.9457Z" fill="#17CF81"/>
<path d="M55.1085 19.195L51.4832 12.6149H50.4652V19.195H46.2191V1.76392H53.3455C54.7195 1.76392 55.8865 2.00395 56.8466 2.484C57.8233 2.96406 58.5517 3.62621 59.0317 4.47045C59.5118 5.29814 59.7518 6.22515 59.7518 7.25149C59.7518 8.41025 59.4207 9.44486 58.7586 10.3553C58.113 11.2658 57.1529 11.9114 55.8782 12.2921L59.9008 19.195H55.1085ZM50.4652 9.6104H53.0972C53.8752 9.6104 54.4546 9.42003 54.8353 9.03929C55.2326 8.65856 55.4313 8.12056 55.4313 7.4253C55.4313 6.76315 55.2326 6.24171 54.8353 5.86097C54.4546 5.48023 53.8752 5.28987 53.0972 5.28987H50.4652V9.6104Z" fill="#091D3E"/>
<path d="M75.4781 12.0438C75.4781 12.4411 75.4533 12.8549 75.4037 13.2853H65.7942C65.8604 14.1461 66.1335 14.8083 66.6136 15.2718C67.1102 15.7187 67.7144 15.9422 68.4262 15.9422C69.4857 15.9422 70.2223 15.4953 70.6362 14.6014H75.1553C74.9236 15.5118 74.5015 16.3312 73.889 17.0596C73.293 17.788 72.5398 18.3591 71.6294 18.7729C70.7189 19.1867 69.7009 19.3937 68.5752 19.3937C67.2178 19.3937 66.0094 19.104 64.95 18.5246C63.8905 17.9452 63.0628 17.1175 62.4669 16.0415C61.871 14.9655 61.573 13.7075 61.573 12.2673C61.573 10.8271 61.8627 9.56901 62.4421 8.49302C63.038 7.41702 63.8657 6.58934 64.9251 6.00995C65.9846 5.43057 67.2013 5.14088 68.5752 5.14088C69.9161 5.14088 71.1079 5.4223 72.1508 5.98512C73.1937 6.54795 74.0049 7.35081 74.5842 8.3937C75.1802 9.43658 75.4781 10.6533 75.4781 12.0438ZM71.1328 10.9264C71.1328 10.1981 70.8845 9.61867 70.3879 9.18827C69.8912 8.75788 69.2705 8.54268 68.5256 8.54268C67.8138 8.54268 67.2095 8.7496 66.7129 9.16344C66.2329 9.57729 65.9349 10.1649 65.819 10.9264H71.1328Z" fill="#091D3E"/>
<path d="M76.8739 12.2673C76.8739 10.8271 77.1636 9.56901 77.743 8.49302C78.3389 7.41702 79.1583 6.58934 80.2012 6.00995C81.2606 5.43057 82.4691 5.14088 83.8265 5.14088C85.5646 5.14088 87.0131 5.59611 88.1718 6.50657C89.3471 7.41702 90.1169 8.69994 90.4811 10.3553H85.9619C85.5812 9.29587 84.8445 8.76615 83.752 8.76615C82.974 8.76615 82.3532 9.0724 81.8897 9.68489C81.4262 10.2808 81.1944 11.1416 81.1944 12.2673C81.1944 13.3929 81.4262 14.262 81.8897 14.8745C82.3532 15.4704 82.974 15.7684 83.752 15.7684C84.8445 15.7684 85.5812 15.2387 85.9619 14.1792H90.4811C90.1169 15.8015 89.3471 17.0761 88.1718 18.0031C86.9965 18.9302 85.5481 19.3937 83.8265 19.3937C82.4691 19.3937 81.2606 19.104 80.2012 18.5246C79.1583 17.9452 78.3389 17.1175 77.743 16.0415C77.1636 14.9655 76.8739 13.7075 76.8739 12.2673Z" fill="#091D3E"/>
<path d="M105.813 12.0438C105.813 12.4411 105.788 12.8549 105.739 13.2853H96.1293C96.1955 14.1461 96.4686 14.8083 96.9487 15.2718C97.4453 15.7187 98.0495 15.9422 98.7613 15.9422C99.8208 15.9422 100.557 15.4953 100.971 14.6014H105.49C105.259 15.5118 104.837 16.3312 104.224 17.0596C103.628 17.788 102.875 18.3591 101.964 18.7729C101.054 19.1867 100.036 19.3937 98.9103 19.3937C97.5529 19.3937 96.3445 19.104 95.285 18.5246C94.2256 17.9452 93.3979 17.1175 92.802 16.0415C92.206 14.9655 91.9081 13.7075 91.9081 12.2673C91.9081 10.8271 92.1978 9.56901 92.7771 8.49302C93.3731 7.41702 94.2008 6.58934 95.2602 6.00995C96.3196 5.43057 97.5363 5.14088 98.9103 5.14088C100.251 5.14088 101.443 5.4223 102.486 5.98512C103.529 6.54795 104.34 7.35081 104.919 8.3937C105.515 9.43658 105.813 10.6533 105.813 12.0438ZM101.468 10.9264C101.468 10.1981 101.22 9.61867 100.723 9.18827C100.226 8.75788 99.6056 8.54268 98.8606 8.54268C98.1488 8.54268 97.5446 8.7496 97.048 9.16344C96.568 9.57729 96.27 10.1649 96.1541 10.9264H101.468Z" fill="#091D3E"/>
<path d="M112.299 7.30115C112.697 6.65555 113.268 6.13411 114.013 5.73682C114.757 5.33953 115.61 5.14088 116.57 5.14088C117.712 5.14088 118.747 5.43057 119.674 6.00995C120.601 6.58934 121.329 7.41702 121.859 8.49302C122.405 9.56901 122.678 10.8188 122.678 12.2424C122.678 13.6661 122.405 14.9242 121.859 16.0167C121.329 17.0927 120.601 17.9287 119.674 18.5246C118.747 19.104 117.712 19.3937 116.57 19.3937C115.593 19.3937 114.741 19.2033 114.013 18.8226C113.284 18.4253 112.713 17.9038 112.299 17.2582V19.195H108.053V1.76392H112.299V7.30115ZM118.358 12.2424C118.358 11.183 118.06 10.3553 117.464 9.75938C116.885 9.14689 116.165 8.84065 115.304 8.84065C114.46 8.84065 113.739 9.14689 113.143 9.75938C112.564 10.3719 112.274 11.2078 112.274 12.2673C112.274 13.3267 112.564 14.1627 113.143 14.7752C113.739 15.3877 114.46 15.6939 115.304 15.6939C116.148 15.6939 116.868 15.3877 117.464 14.7752C118.06 14.1461 118.358 13.3019 118.358 12.2424Z" fill="#091D3E"/>
<path d="M137.967 12.0438C137.967 12.4411 137.942 12.8549 137.892 13.2853H128.283C128.349 14.1461 128.622 14.8083 129.102 15.2718C129.599 15.7187 130.203 15.9422 130.915 15.9422C131.974 15.9422 132.711 15.4953 133.125 14.6014H137.644C137.412 15.5118 136.99 16.3312 136.378 17.0596C135.782 17.788 135.029 18.3591 134.118 18.7729C133.208 19.1867 132.19 19.3937 131.064 19.3937C129.707 19.3937 128.498 19.104 127.439 18.5246C126.379 17.9452 125.552 17.1175 124.956 16.0415C124.36 14.9655 124.062 13.7075 124.062 12.2673C124.062 10.8271 124.351 9.56901 124.931 8.49302C125.527 7.41702 126.354 6.58934 127.414 6.00995C128.473 5.43057 129.69 5.14088 131.064 5.14088C132.405 5.14088 133.597 5.4223 134.64 5.98512C135.683 6.54795 136.494 7.35081 137.073 8.3937C137.669 9.43658 137.967 10.6533 137.967 12.0438ZM133.622 10.9264C133.622 10.1981 133.373 9.61867 132.877 9.18827C132.38 8.75788 131.759 8.54268 131.014 8.54268C130.303 8.54268 129.698 8.7496 129.202 9.16344C128.722 9.57729 128.424 10.1649 128.308 10.9264H133.622Z" fill="#091D3E"/>
<path d="M65.9595 22.2955V39.7266H61.7134V29.2729L57.815 39.7266H54.3884L50.4652 29.248V39.7266H46.2191V22.2955H51.2349L56.1265 34.3631L60.9685 22.2955H65.9595Z" fill="#091D3E"/>
<path d="M68.1686 32.774C68.1686 31.3504 68.4335 30.1005 68.9632 29.0246C69.5095 27.9486 70.2461 27.1209 71.1731 26.5415C72.1001 25.9621 73.1348 25.6724 74.277 25.6724C75.2536 25.6724 76.1061 25.8711 76.8345 26.2683C77.5794 26.6656 78.1505 27.1871 78.5478 27.8327V25.8711H82.7939V39.7266H78.5478V37.7649C78.134 38.4105 77.5546 38.932 76.8097 39.3293C76.0813 39.7266 75.2288 39.9252 74.2521 39.9252C73.1265 39.9252 72.1001 39.6355 71.1731 39.0561C70.2461 38.4602 69.5095 37.6242 68.9632 36.5482C68.4335 35.4557 68.1686 34.1976 68.1686 32.774ZM78.5478 32.7988C78.5478 31.7394 78.2499 30.9034 77.6539 30.2909C77.0745 29.6784 76.3627 29.3722 75.5185 29.3722C74.6743 29.3722 73.9542 29.6784 73.3582 30.2909C72.7788 30.8869 72.4892 31.7145 72.4892 32.774C72.4892 33.8334 72.7788 34.6777 73.3582 35.3067C73.9542 35.9192 74.6743 36.2254 75.5185 36.2254C76.3627 36.2254 77.0745 35.9192 77.6539 35.3067C78.2499 34.6942 78.5478 33.8583 78.5478 32.7988Z" fill="#091D3E"/>
<path d="M88.0011 24.4309C87.2562 24.4309 86.6437 24.2157 86.1637 23.7853C85.7001 23.3383 85.4684 22.7921 85.4684 22.1465C85.4684 21.4843 85.7001 20.938 86.1637 20.5076C86.6437 20.0607 87.2562 19.8372 88.0011 19.8372C88.7295 19.8372 89.3254 20.0607 89.7889 20.5076C90.269 20.938 90.509 21.4843 90.509 22.1465C90.509 22.7921 90.269 23.3383 89.7889 23.7853C89.3254 24.2157 88.7295 24.4309 88.0011 24.4309ZM90.1117 25.8711V39.7266H85.8657V25.8711H90.1117Z" fill="#091D3E"/>
<path d="M98.8253 39.9252C97.6169 39.9252 96.5409 39.7183 95.5974 39.3044C94.6538 38.8906 93.9089 38.3278 93.3626 37.616C92.8163 36.8876 92.5101 36.0765 92.4439 35.1826H96.6402C96.6899 35.6626 96.9134 36.0516 97.3107 36.3496C97.708 36.6476 98.1963 36.7965 98.7757 36.7965C99.3054 36.7965 99.711 36.6972 99.9924 36.4986C100.29 36.2834 100.439 36.0102 100.439 35.6792C100.439 35.2819 100.232 34.9922 99.8186 34.8101C99.4047 34.6114 98.7343 34.3962 97.8073 34.1645C96.8141 33.9327 95.9864 33.6927 95.3242 33.4444C94.6621 33.1795 94.091 32.774 93.6109 32.2277C93.1308 31.6649 92.8908 30.9117 92.8908 29.9681C92.8908 29.1735 93.106 28.4534 93.5364 27.8079C93.9834 27.1457 94.629 26.6243 95.4732 26.2435C96.334 25.8628 97.3521 25.6724 98.5274 25.6724C100.266 25.6724 101.631 26.1028 102.624 26.9636C103.634 27.8244 104.214 28.9666 104.363 30.3902H100.439C100.373 29.9102 100.158 29.5294 99.7937 29.248C99.4461 28.9666 98.9826 28.8259 98.4032 28.8259C97.9066 28.8259 97.5259 28.9252 97.261 29.1239C96.9962 29.306 96.8637 29.5625 96.8637 29.8936C96.8637 30.2909 97.0706 30.5889 97.4845 30.7875C97.9149 30.9862 98.577 31.1848 99.4709 31.3835C100.497 31.6483 101.333 31.9132 101.979 32.178C102.624 32.4263 103.187 32.8402 103.667 33.4196C104.164 33.9824 104.421 34.7439 104.437 35.704C104.437 36.5151 104.205 37.2435 103.742 37.8891C103.295 38.5181 102.641 39.0147 101.78 39.3789C100.936 39.7431 99.951 39.9252 98.8253 39.9252Z" fill="#091D3E"/>
</svg>
